#!OML:ASF F:\VICON\USERDATA\INSTALL\Justin_Nancy\Justin_Nancy.ASF
:FULLY-SPECIFIED
:DEGREES
284
root -6.54721 17.624 4.80396 2.76565 33.15 2.58698
lowerback 6.60812 -0.122706 -2.09767
upperback 0.35715 -0.267668 1.37168
thorax -3.32133 -0.0899945 2.62216
lowerneck -15.4935 -2.80199 -8.89071
upperneck 24.4258 -2.28449 3.23027
head 10.5572 -1.44348 2.35118
rclavicle 4.71617e-014 -7.95139e-016
rhumerus -35.9975 -16.198 -74.4173
rradius 34.9513
rwrist 3.78677
rhand -13.7013 13.9874
rfingers 7.12502
rthumb 12.4171 -15.6238
lclavicle 4.71617e-014 -7.95139e-016
lhumerus -35.1357 15.2761 80.3793
lradius 24.1866
lwrist -14.2064
lhand -14.336 21.7682
lfingers 7.12502
lthumb 11.8052 51.4154
rfemur -17.4473 -4.60739 16.2875
rtibia 68.349
rfoot 6.86668 -5.21301
rtoes 7.50634
lfemur -14.0038 0.726844 -28.7966
ltibia 21.9267
lfoot -6.35789 -1.86532
ltoes 12.9663
285
root -6.46473 17.6127 4.91922 2.9525 33.5049 3.05631
lowerback 6.62846 -0.254938 -2.47245
upperback 0.432 -0.472365 1.35679
thorax -3.23999 -0.188447 2.8368
lowerneck -15.8605 -2.71626 -9.10132
upperneck 24.6512 -2.10109 3.35104
head 10.7031 -1.3665 2.45728
rclavicle 8.85089e-014 -7.15625e-015
rhumerus -36.0274 -16.563 -74.318
rradius 34.876
rwrist 4.51833
rhand -13.1618 13.7411
rfingers 7.12502
rthumb 12.9372 -15.8378
lclavicle 8.85089e-014 -7.15625e-015
lhumerus -34.632 15.8559 80.2913
lradius 24.1785
lwrist -14.6628
lhand -14.6296 21.096
lfingers 7.12502
lthumb 11.522 50.7593
rfemur -18.5528 -4.84146 15.9131
rtibia 68.8707
rfoot 5.75333 -5.45735
rtoes 6.21869
lfemur -13.4718 0.590949 -29.2424
ltibia 22.1559
lfoot -6.91864 -2.02669
ltoes 12.7872
286
root -6.38388 17.6016 5.03956 3.01803 34.1385 3.42677
lowerback 6.59701 -0.407404 -2.7543
upperback 0.554216 -0.694935 1.34724
thorax -3.07771 -0.299529 3.00465
lowerneck -16.1549 -2.74533 -9.33766
upperneck 24.8419 -2.09142 3.5203
head 10.8358 -1.36544 2.56175
rclavicle 2.09221e-014 3.97569e-015
rhumerus -35.9773 -17.0748 -74.1701
rradius 34.5335
rwrist 5.0879
rhand -13.0577 13.9008
rfingers 7.12502
rthumb 13.0376 -15.6718
lclavicle 2.09221e-014 3.97569e-015
lhumerus -34.0515 16.6753 80.0617
lradius 24.0599
lwrist -15.537
lhand -14.4613 19.2892
lfingers 7.12502
lthumb 11.6843 48.9433
rfemur -19.4068 -5.25105 15.6449
rtibia 69.1567
rfoot 4.68877 -5.4996
rtoes 4.85556
lfemur -12.8381 0.432349 -29.5765
ltibia 22.4089
lfoot -7.58733 -2.47195
ltoes 13.019
287
root -6.30895 17.5957 5.15732 2.95262 34.6057 3.42172
lowerback 6.50088 -0.535564 -2.88333
upperback 0.670495 -0.867694 1.46199
thorax -2.88743 -0.388142 3.209
lowerneck -16.3561 -2.70808 -9.47009
upperneck 24.9151 -2.01814 3.65839
head 10.8997 -1.32796 2.64555
rclavicle 1.16438e-013 5.56597e-015
rhumerus -35.7694 -17.2649 -74.1598
rradius 34.1027
rwrist 5.24039
rhand -13.2123 13.9799
rfingers 7.12502
rthumb 12.8885 -15.6021
lclavicle 1.16438e-013 5.56597e-015
lhumerus -33.6833 16.5222 80.1704
lradius 24.4716
lwrist -15.3106
lhand -14.3169 19.4623
lfingers 7.12502
lthumb 11.8235 49.1085
rfemur -20.44 -5.36754 15.797
rtibia 69.2722
rfoot 3.60674 -5.65354
rtoes 5.05535
lfemur -12.3779 0.472124 -29.5665
ltibia 22.6695
lfoot -8.12331 -2.90288
ltoes 12.6595
288
root -6.23522 17.5946 5.26791 2.7314 34.7898 3.01717
lowerback 6.43515 -0.562644 -2.5892
upperback 0.697941 -0.87743 1.56783
thorax -2.82427 -0.397187 3.15209
lowerneck -16.436 -2.66879 -9.26354
upperneck 25.0529 -1.97375 3.51895
head 10.959 -1.30669 2.56824
rclavicle -3.43401e-014 -4.77083e-015
rhumerus -36.0487 -17.6257 -74.1816
rradius 34.0944
rwrist 5.46726
rhand -13.2781 13.9803
rfingers 7.12502
rthumb 12.8251 -15.6057
lclavicle -3.43401e-014 -4.77083e-015
lhumerus -33.3512 16.0768 80.2727
lradius 24.9162
lwrist -14.7729
lhand -14.1324 19.6568
lfingers 7.12502
lthumb 12.0014 49.2927
rfemur -21.7095 -5.08538 16.3372
rtibia 69.2286
rfoot 2.53942 -5.78267
rtoes 6.10125
lfemur -12.1066 0.64853 -29.2162
ltibia 23.0168
lfoot -8.6704 -3.04086
ltoes 12.081
289
root -6.1619 17.5885 5.37328 2.67754 35.0158 2.89205
lowerback 6.46207 -0.614529 -2.54012
upperback 0.668461 -0.939874 1.68214
thorax -2.86411 -0.427097 3.24923
lowerneck -16.4079 -2.72579 -9.34221
upperneck 25.1624 -2.00459 3.41643
head 10.9984 -1.34245 2.54121
rclavicle 1.43523e-013 -7.95139e-016
rhumerus -36.1772 -17.4267 -74.2706
rradius 33.7978
rwrist 5.32347
rhand -13.5356 13.8812
rfingers 7.12502
rthumb 12.5769 -15.7202
lclavicle 1.43523e-013 -7.95139e-016
lhumerus -33.1661 15.8492 80.4553
lradius 25.5117
lwrist -14.3918
lhand -13.6604 18.5326
lfingers 7.12502
lthumb 12.4565 48.1414
rfemur -22.8975 -4.81781 16.5753
rtibia 69.0058
rfoot 1.35717 -5.58343
rtoes 5.62694
lfemur -11.8968 0.563909 -29.1201
ltibia 23.4677
lfoot -9.25041 -2.88879
ltoes 12.2552
290
root -6.09157 17.5719 5.48477 2.64509 35.4034 2.95551
lowerback 6.59929 -0.636034 -2.61751
upperback 0.590582 -0.977285 1.67912
thorax -3.01746 -0.441058 3.29675
lowerneck -16.1326 -2.78369 -9.23402
upperneck 25.2303 -2.10569 3.28244
head 10.9751 -1.39605 2.46154
rclavicle -3.08116e-014 6.36111e-015
rhumerus -36.2967 -17.0023 -74.4756
rradius 33.3433
rwrist 4.66357
rhand -13.6321 13.6459
rfingers 7.12502
rthumb 12.4838 -15.9612
lclavicle -3.08116e-014 6.36111e-015
lhumerus -32.9015 14.8205 80.8754
lradius 26.1183
lwrist -13.2424
lhand -14.0894 19.4343
lfingers 7.12502
lthumb 12.0429 49.0678
rfemur -23.8273 -4.7852 16.6454
rtibia 68.6049
rfoot 0.228512 -4.93388
rtoes 2.15506
lfemur -11.5788 0.500038 -29.1582
ltibia 23.9857
lfoot -9.94839 -3.00924
ltoes 10.8459
291
root -6.02096 17.5496 5.59428 2.77944 35.6763 3.18466
lowerback 6.68761 -0.638271 -2.86388
upperback 0.506416 -1.00221 1.64854
thorax -3.14855 -0.44695 3.40937
lowerneck -16.0022 -2.8463 -9.2665
upperneck 25.2892 -2.24172 3.44169
head 10.9828 -1.44283 2.50749
rclavicle 4.23411e-014 9.54166e-015
rhumerus -36.6401 -17.0615 -74.4733
rradius 33.3182
rwrist 4.69779
rhand -13.3413 13.4028
rfingers 7.12502
rthumb 12.7642 -16.187
lclavicle 4.23411e-014 9.54166e-015
lhumerus -32.5922 13.8536 81.3376
lradius 26.7287
lwrist -12.0668
lhand -14.6131 21.494
lfingers 7.12502
lthumb 11.5379 51.1565
rfemur -24.8813 -4.64903 16.5674
rtibia 68.117
rfoot -1.1568 -4.61349
rtoes -0.437688
lfemur -11.3333 0.655666 -29.3371
ltibia 24.4607
lfoot -10.5577 -3.23633
ltoes 9.92179
292
root -5.94852 17.5293 5.70024 2.90519 36.022 3.30785
lowerback 6.8183 -0.735924 -2.96414
upperback 0.394485 -1.14314 1.6681
thorax -3.32423 -0.510508 3.50372
lowerneck -16.1405 -2.82317 -9.31271
upperneck 25.4798 -2.20359 3.5235
head 11.0799 -1.42217 2.5533
rclavicle -2.67862e-014 4.77083e-015
rhumerus -37.0899 -17.0377 -74.4786
rradius 33.5738
rwrist 4.67886
rhand -13.3565 13.4597
rfingers 7.12502
rthumb 12.7496 -16.131
lclavicle -2.67862e-014 4.77083e-015
lhumerus -32.4499 13.2439 81.6216
lradius 27.4152
lwrist -11.3711
lhand -14.5403 21.3145
lfingers 7.12502
lthumb 11.6081 50.973
rfemur -25.8764 -4.58261 16.6324
rtibia 67.492
rfoot -2.69844 -4.78131
rtoes -0.74608
lfemur -11.1454 0.622875 -29.4348
ltibia 24.9039
lfoot -11.1839 -3.34386
ltoes 10.1165
